PathFileType  4	(X/Y/Z) C:\Users\antoi\Documents\MyRepositories\mobilecap\ResultsAnalysis
DataRate	CameraRate	NumFrames	NumMarkers	Units	OrigDataRate	OrigDataStartFrame	OrigNumFrames
100.0	100.0	4	55	mm	100.0	701	800
Frame#	Time	r_knee			r_shank_antsup			r_ankle			r_calc			r_5meta			r_toe			L_knee			L_shank_antsup			L_ankle			L_calc			L_5meta			L_toe			r_mknee			r_mankle			L_mknee			L_mankle			r_sh2			r_sh3			r_sh4			L_sh2			L_sh3			r_thigh1			r_thigh2			r_thigh3			r_thigh4			r_thigh5			L_thigh1			L_thigh2			L_thigh3			L_thigh4			r.ASIS			r.PSIS			L.ASIS			L.PSIS			C7			R_Shoulder			L_Shoulder			R_Sternum			L_Sternum			R_humerus			R_elbow_med			R_elbow_lat			R_forearm			R_wrist_radius			R_wrist_ulna			L_humerus			L_elbow_med			L_elbow_lat			L_forearm			L_wrist_radius			L_wrist_ulna			R_HJC			L_HJC			R_HJC_reg			L_HJC_reg			
		X1	Y1	Z1	X2	Y2	Z2	X3	Y3	Z3	X4	Y4	Z4	X5	Y5	Z5	X6	Y6	Z6	X7	Y7	Z7	X8	Y8	Z8	X9	Y9	Z9	X10	Y10	Z10	X11	Y11	Z11	X12	Y12	Z12	X13	Y13	Z13	X14	Y14	Z14	X15	Y15	Z15	X16	Y16	Z16	X17	Y17	Z17	X18	Y18	Z18	X19	Y19	Z19	X20	Y20	Z20	X21	Y21	Z21	X22	Y22	Z22	X23	Y23	Z23	X24	Y24	Z24	X25	Y25	Z25	X26	Y26	Z26	X27	Y27	Z27	X28	Y28	Z28	X29	Y29	Z29	X30	Y30	Z30	X31	Y31	Z31	X32	Y32	Z32	X33	Y33	Z33	X34	Y34	Z34	X35	Y35	Z35	X36	Y36	Z36	X37	Y37	Z37	X38	Y38	Z38	X39	Y39	Z39	X40	Y40	Z40	X41	Y41	Z41	X42	Y42	Z42	X43	Y43	Z43	X44	Y44	Z44	X45	Y45	Z45	X46	Y46	Z46	X47	Y47	Z47	X48	Y48	Z48	X49	Y49	Z49	X50	Y50	Z50	X51	Y51	Z51	X52	Y52	Z52	X53	Y53	Z53	X54	Y54	Z54	X55	Y55	Z55	

701	7.00000000	-219.17409	607.02366	-669.74987	-209.33724	464.93848	-661.03607	-286.81184	103.41990	-629.09577	-346.90318	72.27068	-689.27590	-151.59416	40.23679	-599.10740	-113.67430	64.77424	-652.81873	-241.45888	608.11454	-1112.88553	-206.89849	415.68999	-1121.75831	-294.90694	116.02819	-1160.26842	-350.03592	74.51256	-1102.33677	-150.75713	31.93538	-1194.60657	-112.48801	65.74177	-1136.50425	-240.30888	587.42329	-787.91517	-253.87596	128.61248	-727.47764	-233.47182	579.57666	-992.57457	-252.15778	125.48708	-1068.51339	-219.04381	351.73540	-654.03972	-271.74768	472.52816	-620.33833	-285.70348	361.79141	-605.19407	-278.18262	435.16139	-1169.27460	-293.71160	315.82779	-1168.98828	-138.55788	895.93588	-676.20115	-142.66920	785.92454	-669.79482	-205.88713	764.01337	-655.80040	-250.52710	901.40268	-692.67161	-255.43587	783.07437	-674.34983	-144.27855	894.08028	-1090.09656	-160.52163	761.70152	-1102.20005	-250.06252	913.72092	-1095.64457	-267.08833	775.82956	-1111.61949	-74.45885	1172.14365	-760.43551	-266.35767	1205.71177	-827.60433	-109.34028	1163.37750	-1033.41649	-278.00038	1208.34071	-918.82484	-269.76049	1679.92456	-890.09095	-185.11932	1659.28078	-718.54429	-223.77206	1667.14700	-1067.75082	-109.45783	1629.80806	-873.22918	-113.02319	1631.55453	-924.37928	-188.52416	1392.09707	-636.35560	-269.34550	1281.10497	-670.21980	-263.73796	1302.88355	-602.72032	-186.92618	1109.44680	-551.60910	-159.59006	1017.08590	-540.59860	-193.88369	1018.50205	-522.26511	-201.35887	1374.77353	-1136.39448	-278.89433	1295.62986	-1086.43573	-265.71818	1295.15458	-1160.27047	-187.27427	1108.79554	-1206.02160	-157.83761	1032.23073	-1206.60302	-187.24975	1033.75532	-1227.65725	-157.96286	1078.18585	-786.72251	-188.59104	1077.08971	-981.80625	-148.68125	1081.96689	-793.15237	-171.67917	1087.15985	-973.34093	
702	7.01000000	-218.96468	607.17377	-669.61379	-209.34766	464.95454	-661.01541	-286.82627	103.39365	-629.08780	-346.91800	72.29795	-689.30867	-151.59129	40.23413	-599.09977	-113.65126	64.79806	-652.82743	-241.42561	608.09831	-1112.86017	-206.86362	415.70274	-1121.75182	-294.90543	116.07061	-1160.25164	-350.03386	74.51938	-1102.34977	-150.74867	31.95789	-1194.59670	-112.46916	65.72227	-1136.47300	-240.27489	587.40109	-787.90556	-253.85272	128.64581	-727.46177	-233.42554	579.55990	-992.56592	-252.16188	125.45615	-1068.49668	-218.98263	351.76488	-654.07404	-271.71076	472.55040	-620.34079	-285.81203	361.69819	-605.30244	-278.17388	435.19797	-1169.27951	-293.69748	315.84007	-1168.98530	-138.40873	895.78588	-676.25089	-142.66951	785.90929	-669.81454	-205.84637	764.00304	-655.80508	-250.52807	901.40243	-692.67483	-255.46866	783.10596	-674.37920	-144.28415	894.08922	-1090.10693	-160.50984	761.71881	-1102.21832	-250.07345	913.74472	-1095.62166	-267.05884	775.88492	-1111.72977	-74.47855	1172.10162	-760.41418	-266.36358	1205.71118	-827.61405	-109.31726	1163.41607	-1033.46838	-277.99626	1208.33633	-918.83186	-269.80657	1679.94670	-890.07920	-185.12688	1659.26490	-718.52007	-223.78964	1667.15889	-1067.71656	-109.47269	1629.80888	-873.17394	-113.03982	1631.59076	-924.36411	-188.50800	1392.03982	-636.34805	-269.38162	1281.08561	-670.24962	-263.76747	1302.82780	-602.77168	-186.91029	1109.40692	-551.63505	-159.57209	1017.06562	-540.65282	-193.90537	1018.47579	-522.29540	-201.36486	1374.82696	-1136.37357	-278.93431	1295.66708	-1086.38483	-265.72195	1295.18896	-1160.25253	-187.25310	1108.84143	-1205.99221	-157.78310	1032.28264	-1206.55465	-187.21003	1033.79263	-1227.62523	-157.97632	1078.15561	-786.76218	-188.58279	1077.11482	-981.84965	-148.71160	1081.96653	-793.14601	-171.69611	1087.15346	-973.37944	
703	7.02000000	-218.88874	607.22254	-669.58130	-209.33319	464.97776	-661.02196	-286.86473	103.36151	-629.07487	-346.92847	72.31289	-689.32974	-151.62372	40.21293	-599.07846	-113.63366	64.81722	-652.83987	-241.40006	608.09803	-1112.86162	-206.83767	415.72331	-1121.75644	-294.89609	116.08694	-1160.25104	-350.05525	74.49959	-1102.33566	-150.73902	31.98664	-1194.58345	-112.46788	65.74837	-1136.45548	-240.23344	587.36595	-787.89514	-253.86495	128.63462	-727.47294	-233.40088	579.57453	-992.55430	-252.16129	125.45418	-1068.51300	-218.92845	351.80787	-654.15238	-271.66993	472.59001	-620.27562	-285.77088	361.74671	-605.26333	-278.16033	435.22927	-1169.28958	-293.69113	315.84795	-1168.98427	-138.36676	895.75086	-676.27019	-142.67906	785.90482	-669.82128	-205.83106	764.04385	-655.79447	-250.52245	901.41067	-692.68132	-255.44878	783.06216	-674.41602	-144.28390	894.10392	-1090.12511	-160.49521	761.73035	-1102.23942	-250.07278	913.75713	-1095.60396	-267.00814	775.92719	-1111.86300	-74.49218	1172.09924	-760.41394	-266.36804	1205.70616	-827.62991	-109.31035	1163.43340	-1033.48879	-277.99405	1208.32913	-918.83749	-269.83099	1679.95477	-890.06393	-185.16107	1659.25917	-718.47696	-223.80626	1667.17193	-1067.67516	-109.47216	1629.80657	-873.14051	-113.05618	1631.62426	-924.33707	-188.52294	1392.02029	-636.34848	-269.40239	1281.03816	-670.23937	-263.76903	1302.81238	-602.77529	-186.90843	1109.37315	-551.67019	-159.53737	1017.05246	-540.69250	-193.91577	1018.45096	-522.32404	-201.37746	1374.88092	-1136.35254	-278.95702	1295.67686	-1086.35300	-265.72447	1295.22466	-1160.23377	-187.24049	1108.87548	-1205.97757	-157.74871	1032.32999	-1206.54761	-187.18976	1033.81132	-1227.61340	-157.97711	1078.15005	-786.77989	-188.57339	1077.12268	-981.86902	-148.71976	1081.97053	-793.15218	-171.69530	1087.15408	-973.39835	
704	7.03000000	-218.85500	607.26614	-669.56777	-209.29189	464.99955	-661.05361	-286.91472	103.37543	-629.06478	-346.93000	72.30003	-689.29297	-151.68881	40.18293	-599.05028	-113.64660	64.82477	-652.80171	-241.39084	608.12929	-1112.89242	-206.80454	415.73476	-1121.75913	-294.89293	116.08845	-1160.25326	-350.06575	74.49430	-1102.29959	-150.73820	32.00913	-1194.56989	-112.47716	65.78324	-1136.45846	-240.21010	587.33920	-787.90574	-253.88125	128.62116	-727.48765	-233.36842	579.59382	-992.55715	-252.17494	125.48602	-1068.56072	-218.96585	351.81408	-654.11362	-271.58203	472.64214	-620.25709	-285.74487	361.77140	-605.24687	-278.14051	435.24290	-1169.29892	-293.69305	315.84925	-1168.98290	-138.48937	895.83685	-676.23698	-142.67665	785.91338	-669.81279	-205.84748	764.04790	-655.82600	-250.47639	901.43297	-692.67745	-255.40047	782.99692	-674.45613	-144.27900	894.12187	-1090.12953	-160.47676	761.74257	-1102.24957	-250.06009	913.75899	-1095.60097	-266.95402	775.94386	-1111.92320	-74.47840	1172.18836	-760.47338	-266.36866	1205.70554	-827.63950	-109.32285	1163.42284	-1033.46812	-278.00712	1208.33314	-918.85151	-269.84118	1679.95981	-890.05161	-185.21841	1659.26073	-718.42393	-223.82365	1667.18773	-1067.64817	-109.47333	1629.80879	-873.13204	-113.08124	1631.63358	-924.29053	-188.57876	1392.05551	-636.34766	-269.46737	1281.01716	-670.23057	-263.77986	1302.79213	-602.75069	-186.92245	1109.35659	-551.71375	-159.54365	1017.04722	-540.72932	-193.90660	1018.44352	-522.37020	-201.39163	1374.92062	-1136.34502	-278.95228	1295.67577	-1086.36524	-265.72162	1295.25514	-1160.21354	-187.23235	1108.89563	-1205.96268	-157.73192	1032.37137	-1206.54422	-187.17436	1033.82745	-1227.60253	-157.94087	1078.20625	-786.76550	-188.56110	1077.11232	-981.85048	-148.66405	1081.99220	-793.19844	-171.65658	1087.18319	-973.39371	
